<svg width="1985" height="684" viewBox="0 0 1985 684" fill="none" xmlns="http://www.w3.org/2000/svg">
<path d="M89.8384 437.76V230.423H7.75391V178.322H229.409V230.423H147.324V437.76H89.8384ZM465.502 178.322H525.661L350.262 546.238H290.103L359.62 399.552L257.216 178.322H319.247L389.835 337.03L465.502 178.322ZM679.669 393.942C702.842 393.942 721.025 387.351 734.215 374.17C747.584 360.81 755.872 342.819 759.081 320.197L810.952 339.168C804.534 371.943 789.74 397.504 766.567 415.85C743.573 434.02 715.498 443.103 682.344 443.103C640.276 443.103 606.498 430.635 581.008 405.697C555.518 380.582 542.773 347.45 542.773 306.303C542.773 280.831 548.744 257.854 560.687 237.37C572.63 216.885 588.584 201.032 608.548 189.81C628.513 178.588 650.348 172.977 674.055 172.977C706.319 172.977 733.501 181.527 755.605 198.627C777.886 215.549 791.789 238.705 797.316 268.097L745.177 284.662C742.146 265.246 734.215 250.016 721.381 238.973C708.724 227.75 692.95 222.14 674.055 222.14C661.043 222.14 648.832 225.256 637.425 231.492C626.017 237.726 616.481 247.433 608.816 260.615C601.329 273.618 597.585 288.848 597.585 306.303C597.585 331.953 605.785 352.973 622.184 369.36C638.762 385.747 657.924 393.942 679.669 393.942ZM883.41 404.628C858.455 378.978 845.978 346.828 845.978 308.173C845.978 269.521 858.455 237.37 883.41 211.72C908.544 185.891 940.54 172.977 979.399 172.977C1018.26 172.977 1050.25 185.891 1075.39 211.72C1100.52 237.37 1113.09 269.521 1113.09 308.173C1113.09 346.828 1100.52 378.978 1075.39 404.628C1050.25 430.278 1018.26 443.103 979.399 443.103C940.54 443.103 908.544 430.278 883.41 404.628ZM1033.94 368.023C1048.38 352.349 1055.6 332.399 1055.6 308.173C1055.6 283.949 1048.38 263.999 1033.94 248.323C1019.51 232.649 1001.32 224.812 979.399 224.812C957.474 224.812 939.292 232.649 924.854 248.323C910.594 263.999 903.464 283.949 903.464 308.173C903.464 332.399 910.594 352.349 924.854 368.023C939.292 383.522 957.474 391.27 979.399 391.27C1001.32 391.27 1019.51 383.522 1033.94 368.023ZM1167.63 437.76V178.322H1310.14C1336.17 178.322 1356.76 184.467 1371.91 196.757C1387.24 209.047 1394.91 225.524 1394.91 246.187C1394.91 259.367 1390.8 271.659 1382.6 283.058C1374.58 294.458 1364.06 302.206 1351.05 306.303C1367.27 309.51 1380.01 316.19 1389.28 326.343C1398.55 336.497 1403.19 349.944 1403.19 366.688C1403.19 387.885 1395.44 405.074 1379.93 418.255C1364.6 431.258 1344.01 437.76 1318.16 437.76H1167.63ZM1225.12 281.723H1307.2C1316.83 281.723 1324.23 279.496 1329.39 275.043C1334.74 270.411 1337.42 264.088 1337.42 256.073C1337.42 248.057 1334.74 241.823 1329.39 237.37C1324.23 232.738 1316.83 230.423 1307.2 230.423H1225.12V281.723ZM1225.12 385.658H1312.82C1323.15 385.658 1331.18 383.164 1336.88 378.177C1342.76 373.189 1345.7 366.599 1345.7 358.405C1345.7 349.855 1342.85 343.175 1337.15 338.367C1331.44 333.557 1323.33 331.152 1312.82 331.152H1225.12V385.658ZM1462.27 437.76V178.322H1519.77V273.707L1601.85 178.322H1675.92L1563.62 300.96L1681.25 437.76H1607.47L1519.77 331.152V437.76H1462.27ZM1709.07 364.017C1709.07 336.763 1718.07 316.101 1736.07 302.028C1754.26 287.779 1778.31 280.653 1808.27 280.653C1824.13 280.653 1839.45 282.523 1854.25 286.265L1881.52 292.677V273.707C1881.52 256.785 1875.91 243.515 1864.68 233.897C1853.46 224.277 1839.01 219.468 1821.37 219.468C1804.43 219.468 1790.44 224.099 1779.38 233.362C1768.51 242.447 1761.48 254.914 1758.27 270.768L1706.39 257.142C1712.27 231.135 1725.12 210.65 1744.9 195.688C1764.68 180.547 1790.17 172.977 1821.37 172.977C1858.26 172.977 1886.6 181.973 1906.39 199.963C1926.35 217.954 1936.33 243.426 1936.33 276.378V437.76H1881.52V393.942C1875.65 409.081 1865.22 421.106 1850.24 430.012C1835.45 438.739 1816.9 443.103 1794.63 443.103C1771.99 443.103 1752.03 435.89 1734.74 421.462C1717.63 406.855 1709.07 387.706 1709.07 364.017ZM1881.52 339.168V336.497L1860.67 331.152C1841.96 326.343 1827.61 323.938 1817.62 323.938C1802.65 323.938 1790.8 326.877 1782.06 332.755C1773.51 338.455 1769.22 347.005 1769.22 358.405C1769.22 369.093 1773.33 377.732 1781.53 384.323C1789.73 390.735 1801.76 393.942 1817.62 393.942C1836.7 393.942 1852.11 389.043 1863.87 379.247C1875.65 369.449 1881.52 356.089 1881.52 339.168Z" fill="white"/>
<path d="M1849.09 533.156C1851.91 532.742 1855.85 534.46 1859.07 534.561C1861.59 534.64 1863.78 534.772 1865.79 534.933L1872.05 534.887L1878.6 538.66C1885.31 543.383 1888.93 546.641 1896.55 551.906C1904 557.119 1920.07 566.005 1933.14 576.583L1932.36 576.07C1936.62 579.325 1944.15 585.103 1947.49 590.464C1950.99 595.804 1951.38 599.923 1949.17 601.689C1949.08 601.765 1948.98 601.838 1948.87 601.906C1946.92 603.142 1941.67 601.086 1939.3 602.56C1936.96 604.032 1925.03 616.098 1921.53 614.543C1919.6 613.59 1916.84 611.588 1912.24 608.153L1911.68 607.779C1905.42 602.335 1898.07 595.782 1895.5 594.336C1892.75 592.802 1888.6 592.096 1884.98 590.232C1873.28 584.198 1867.94 579.667 1855.52 577.065C1855.46 576.968 1855.4 576.869 1855.33 576.772L1864.98 579.576C1860.59 577.314 1856.17 575.125 1851.69 573.048C1845.82 574.176 1836.85 571.897 1833.36 572.523C1830.51 573.003 1829.12 574.984 1826.27 575.557C1823.12 576.219 1817.78 575.341 1812.36 577.43C1803.54 581.031 1804.41 586.132 1800.46 589.094C1797.4 591.516 1792.14 593.854 1788.38 598.023C1787.18 599.315 1786.12 600.785 1785.28 602.377C1785.08 603.414 1784.87 604.474 1784.68 605.529C1785.99 605.715 1787.32 605.905 1788.61 606.133C1786.73 609.296 1783.86 609.206 1781.64 612.125C1779.04 615.601 1779.53 618.785 1777.77 621.277C1776.31 623.327 1772.87 625.164 1770.99 628.021C1768.24 632.198 1770.95 632.808 1769.73 635.338C1769.62 636.199 1757.07 654.361 1755.47 655.483C1748 663.119 1744.8 661.231 1736.96 666.234C1730.25 670.278 1721.94 673.918 1712.82 675.233C1702.02 676.808 1692.41 675.198 1684.7 673.402C1678.13 671.958 1671.67 670.417 1665.5 668.574C1657.76 666.265 1649.92 662.897 1642.69 659.019C1657.84 655.953 1635.59 638.052 1638.99 655.194C1631.7 649.507 1624.2 649.874 1616.89 644.838C1613.79 642.681 1611.74 640.292 1608.77 637.637C1607.07 636.152 1605.17 634.57 1602.83 632.861C1590.61 623.755 1577.17 618.677 1580.92 608.905C1569.08 601.003 1561.21 592.914 1554.49 599.968C1552.76 599.674 1550.24 596.299 1547.38 594.088C1546.03 593.087 1544.71 592.298 1543.74 591.999C1541.22 590.574 1524.26 590.479 1518.74 594.82C1517.32 595.664 1516.16 596.452 1515.54 596.898C1511.83 599.547 1504.78 605.384 1501.73 608.906C1497.96 613.181 1500.17 623.534 1484.68 621.023C1474.13 628.699 1469.15 631.048 1455.98 633.303C1453.55 633.63 1452.97 632.091 1451.61 632.339C1448.8 632.844 1444 634.632 1438.69 634.613C1429.86 634.517 1426.02 629.742 1425.83 635.052C1423.23 634.874 1420.73 634.585 1418.14 634.145C1415.31 633.725 1412.5 633.228 1409.71 632.667C1408.41 631.105 1407.16 629.533 1405.96 627.953C1403.12 627.934 1400.27 627.855 1397.44 627.726C1403.23 622.342 1385.3 618.354 1388.54 624.737C1380.93 619.123 1373.96 613.38 1367.16 607.834C1372.29 600.945 1351.13 597.992 1350.6 603.008C1349.77 602.573 1348.93 602.143 1348.1 601.718C1346.17 599.973 1344.1 598.637 1341.94 597.488C1336.25 594.527 1330.23 592.105 1324.06 587.661C1315.22 581.258 1316.6 581.042 1315.57 576.092C1313.27 575.126 1310.98 574.173 1308.71 573.254C1292.81 577.43 1302.4 560.403 1280.02 561.56C1277.44 556.518 1269.63 554.47 1262.14 555.471C1258.26 556.032 1255.21 558.237 1253.52 560.342C1253 560.989 1253.75 562.04 1253.3 562.942C1253.14 563.263 1252.91 563.597 1252.63 563.961C1249.44 567.708 1243.42 573.281 1246.29 575.452C1242.78 577.497 1239.24 579.611 1235.67 581.732C1234.04 584.65 1232.39 587.575 1230.69 590.516C1231.66 591.397 1232.63 592.278 1233.6 593.161C1225.8 595.02 1219.52 603.802 1214.79 606.675C1213.85 607.24 1212.47 606.084 1209.69 607.916C1206.45 610.057 1201.21 615.113 1197.07 617.439C1196.81 620.129 1196.46 622.841 1196.01 625.573C1189.24 631.45 1183.71 628.372 1179.06 630.34C1178.72 630.48 1176.16 631.841 1173.04 633.275C1168.02 635.673 1161.32 637.544 1160.75 637.706C1153.08 639.569 1155.43 646.5 1130.95 642.693C1129.27 642.324 1127.78 641.712 1126.39 641.048C1123.94 639.957 1121.85 638.692 1119.57 637.807C1112.3 635.477 1095.13 628.424 1092.46 630.472C1088.73 622.897 1075.08 616.147 1072.64 614.343C1071.81 613.642 1072.51 610.999 1069.56 609.574C1067.84 608.74 1064.18 609.12 1061.61 609.86C1059.49 610.224 1057.55 610.466 1056.04 610.465C1050.6 610.44 1048.62 608.343 1046.25 608.324C1044.01 608.303 1042.07 610.172 1039.1 610.333C1029.87 610.797 1021.6 608.637 1014.75 609.61C1004.81 610.987 998.044 618.38 993.473 623.171C991.917 623.537 990.024 623.28 988.63 624.121C987.81 624.615 987.016 625.13 986.241 625.67C977.425 631.842 968.357 638.562 957.921 645.373C947.257 651.033 936.182 662.977 911.43 658.108C904.47 655.983 898.024 653.277 892.1 650.377C877.888 643.749 853.183 620.129 854.857 635.009C852.147 634.734 843.55 628.64 835.578 623.662C824.981 617.335 818.689 611.207 816.075 609.611C810.778 606.061 805.742 605.43 801.896 603.332C790.431 597.303 782.859 592.661 768.153 593.666C764.357 593.999 760.518 596.754 758.322 596.953C755.714 597.172 752.418 595.177 748.722 595.778C746.507 596.143 743.836 596.759 740.843 597.634C734.308 599.373 725.958 605.034 720.34 608.96C718.973 609.887 717.211 608.543 714.84 609.556C705.68 613.562 696.104 621.688 702.002 625.634C689.273 631.037 678.885 641.785 662.96 646.67C661.696 647.049 660.43 647.373 659.168 647.641C644.651 650.832 629.078 648.131 616.933 646.483C593.437 643.511 567.77 637.543 552.182 634.043C538.236 630.871 536.002 633.023 520.755 624.357C519.175 623.418 517.466 622.347 515.618 621.13C511.484 618.406 507.597 615.51 502.885 612.299C491.976 604.804 483.821 594.54 472.865 597.533C463.821 592.452 456.2 590.943 449.779 587.541C447.871 586.609 445.998 585.522 444.108 584.176C442.922 585.499 441.783 586.845 440.693 588.209C439.22 588.202 437.754 588.23 436.294 588.295C435.812 586.975 435.308 585.657 434.785 584.345C423.505 584.239 411.762 592.954 404.141 596.521C400.566 598.088 395.523 600.477 389.994 603.915C374.889 613.091 353.286 633.494 341.695 641.369C333.435 647.119 334.451 649.811 326.159 648.619C324.48 650.312 322.725 651.983 320.835 653.637C320.212 655.533 319.474 657.459 318.665 659.376C315.819 660.968 312.642 662.447 309.141 663.696C297.727 667.736 282.883 669.977 268.854 666.644C264.788 665.704 260.406 664.17 256.183 661.874C231.587 647.215 217.163 627.009 206.917 619.114C204.196 616.547 201.338 612.199 197.931 611.255C194.608 610.35 192.619 612.179 190.063 613.333C188.299 613.861 186.236 614.229 183.47 614.184C168.722 613.577 139.643 611.084 125.212 614.4C120.95 615.295 119.293 617.306 116.42 618.09C115.845 618.248 115.277 618.404 114.716 618.56C101.908 621.965 91.1921 623.677 78.3285 627.331C63.0396 624.326 64.0673 618.473 59.6607 613.056C56.0999 609.177 47.0253 597.794 50.5849 594.656C51.9682 592.484 52.4201 589.125 53.5948 586.582C53.0097 585.895 56.1692 586.199 58.2871 586.204C60.629 586.282 62.9654 586.479 65.3078 586.812C70.0191 587.464 74.7243 588.701 81.1411 589.927C89.9243 588.812 98.7908 587.251 107.425 585.304C122.847 581.838 138.459 579.423 154.261 578.115C156.714 579.462 159.138 580.835 161.531 582.237C161.531 582.235 161.531 582.24 161.531 582.237C171.34 583.509 175.392 579.624 180.784 578.768C184.281 578.229 188.037 577.83 192.021 577.6C230.207 574.239 257.615 619.091 274.415 629.856C277.458 632.348 285.919 632.57 295.343 629.123C309.138 624.287 324.071 610.476 335.668 600.169C341.309 595.168 354.673 580.977 368.283 571.949C375.229 567.292 381.668 564.355 384.783 563.782C387.168 563.348 388.732 565.221 390.974 564.347C410.019 554.445 432.407 550.069 454.212 551.435C454.43 551.449 454.646 551.463 454.863 551.478C487.888 558.885 513.513 575.254 539.156 586.442C549.106 590.876 559.385 594.462 569.801 597.511C586.616 602.441 604.126 605.518 621.988 607.562C634.888 609.15 645.973 610.455 652.8 608.285C673.648 603.666 691.002 572.726 730.041 559.795C751.167 553.394 776.256 551.814 798.948 559.429C821.504 566.44 839.88 582.109 852.56 588.464C859.468 591.813 865.915 595.437 872.072 599.024C888.253 608.549 906.812 618.284 921.225 622.421C920.721 622.339 920.391 622.519 920.861 622.6C922.869 622.729 928.146 624.848 934.705 617.243C935.348 618.042 935.992 618.839 936.639 619.636C943.413 613.678 946.894 608.127 955.565 601.51C957.637 599.928 960.711 597.618 964.258 595.031C976.07 586.092 992.989 581.351 999.474 580.34C1004.25 579.534 1002.86 581.754 1007.17 580.98C1014.53 579.57 1029.63 575.652 1038.95 575.203C1044.56 574.883 1052.5 575.456 1058.75 575.492C1063.85 575.349 1068.35 575.92 1071.46 576.28C1102.95 581.083 1123.59 602.021 1135.2 603.893C1136.08 604.124 1136.94 604.339 1137.8 604.537C1142.24 605.696 1148.11 607.863 1149.61 607.538C1152.43 607.014 1152.71 604.444 1154.31 603.711C1155.79 603.013 1157.42 602.31 1159.17 601.506C1168.73 597.371 1181.57 590.306 1189.32 583.276C1202.53 571.634 1214.63 556.78 1229.2 541.346C1237.52 532.435 1250.3 527.29 1261.95 527.331C1288.49 527.216 1309.6 538.37 1326.9 547.465C1336.1 552.393 1346.8 558.419 1357.66 563.501C1381.4 574.737 1402.45 588.771 1416.07 595.69C1420.6 598.077 1418.36 599.979 1422.38 601.555C1424.81 602.477 1426.8 602.603 1428.46 602.612C1429.65 602.56 1430.58 602.4 1431.36 602.534C1437.48 603.675 1446.04 603.333 1455.05 599.016C1464.08 594.905 1473.58 587.263 1480.17 583.018C1482.66 581.411 1485.7 581.544 1487.11 580.352C1487.83 579.748 1488.56 577.295 1490.86 575.222C1493.66 572.705 1496.57 570.23 1499.82 567.82C1517.29 555.398 1535.98 554.174 1553.2 557.021C1560.43 558.27 1567.68 560.658 1574.61 564.046C1598.32 575.786 1614.04 594.936 1630.22 605.002C1650.27 617.763 1673.67 626.864 1696.89 634.577C1699.71 635.529 1702.23 636.176 1704.35 636.491C1705.94 636.727 1707.17 637.012 1708.29 637.312C1711.56 638.245 1715.38 638.804 1716.07 638.406C1718.13 637.147 1717.91 634.225 1721.36 630.336C1732.51 618.15 1747.54 594.4 1764.02 575.321C1765.43 573.719 1766.84 572.195 1768.25 570.731C1777.15 560.842 1792.84 548.504 1805.42 544.37C1815.55 540.237 1838.58 539.193 1842.5 537.695C1844.98 536.639 1846.05 533.623 1849.09 533.156ZM1597.35 625.666C1601.46 623.006 1586.33 615.272 1589.37 621.221C1590 622.545 1596.2 626.344 1597.35 625.666ZM953.007 639.383C953.891 640.42 954.778 641.454 955.668 642.487C957.212 640.76 958.678 639.05 960.13 637.331C958.661 637.375 957.203 637.405 955.723 637.439C954.823 638.091 953.925 638.736 953.007 639.383Z" fill="#FF1919"/>
</svg>
