<?xml version="1.0" encoding="iso-8859-1"?>

<!DOCTYPE svg PUBLIC "-//W3C//DTD SVG 1.1//EN" "http://www.w3.org/Graphics/SVG/1.1/DTD/svg11.dtd">
<!-- Uploaded to: SVG Repo, www.svgrepo.com, Generator: SVG Repo Mixer Tools -->
<svg height="800px" width="800px" version="1.1" id="_x36_" xmlns="http://www.w3.org/2000/svg" xmlns:xlink="http://www.w3.org/1999/xlink" 
	 viewBox="0 0 512 512"  xml:space="preserve">
<g>
	<g>
		<path style="fill:#878A93;" d="M404.117,398.473v0.565c0,1.37,0,2.822-0.08,4.193v0.483c-0.081,2.499-0.242,4.999-0.484,7.418
			c0,0.323-0.081,0.725-0.081,1.048c-0.161,1.129-0.242,2.257-0.403,3.387c-0.161,1.128-0.323,2.257-0.565,3.386
			c-0.242,1.612-0.564,3.306-0.967,4.918c-1.29,5.483-3.145,10.804-5.725,15.885c-0.806,1.612-1.693,3.144-2.661,4.676
			c-3.628,5.967-8.466,11.45-14.675,16.448c-10.724,8.628-25.56,15.643-46.12,20.48c-0.081,0-0.081,0-0.081,0
			c-2.258,0.565-4.677,1.048-7.095,1.532c-18.464,3.71-41.121,5.725-68.858,5.725h-3.951
			c-100.787-0.725-132.878-29.027-141.667-63.94c-1.048-4.031-1.693-8.225-2.177-12.497c-0.403-4.516-0.645-9.111-0.645-13.708
			c0-23.14,10.321-44.185,27.011-59.504c4.596-4.193,9.675-7.982,15.239-11.289c14.352-8.465,31.365-13.465,49.588-13.465h112.56
			c5.241,0,10.32,0.404,15.239,1.21c1.855,0.241,3.628,0.564,5.403,0.967c2.741,0.564,5.402,1.289,8.063,2.096
			c2.338,0.725,4.676,1.531,7.015,2.419C380.896,333.727,404.117,363.722,404.117,398.473z"/>
		<path style="fill:#878A93;" d="M404.109,379.306v0.601c0,1.383-0.03,2.767-0.076,4.135v0.015c0,0.18,0,0.346-0.015,0.526
			c-0.09,2.481-0.241,4.947-0.466,7.398c-0.03,0.346-0.06,0.707-0.106,1.052c-0.12,1.128-0.255,2.255-0.391,3.368
			c-0.165,1.143-0.346,2.285-0.541,3.413c-1.248,7.217-3.353,14.209-6.692,20.795c-0.812,1.579-1.699,3.158-2.646,4.691
			c-3.669,5.909-8.481,11.443-14.721,16.465c-10.676,8.571-25.547,15.608-46.132,20.465c-0.015,0-0.015,0-0.015,0
			c-2.301,0.541-4.677,1.052-7.128,1.534c-0.015,0.015-0.015,0.015-0.03,0c-18.465,3.669-41.095,5.714-68.867,5.714h-0.933
			c0,0,0,0-0.015,0c-0.992,0-1.954,0-2.916-0.015h-0.016c-112.608-0.782-139.553-35.997-143.839-76.415
			c-0.481-4.526-0.676-9.127-0.676-13.743c0-23.156,10.33-44.207,26.975-59.469c4.631-4.24,9.728-8.03,15.247-11.307h0.015
			c14.33-8.496,31.351-13.428,49.59-13.428h112.578c5.187,0,10.27,0.406,15.232,1.173c1.805,0.271,3.579,0.602,5.353,0.978
			c2.752,0.586,5.458,1.278,8.105,2.09c2.375,0.722,4.691,1.519,6.976,2.406C380.878,314.589,404.109,344.571,404.109,379.306z"/>
		<path style="opacity:0.07;fill:#040000;" d="M404.117,398.473v0.565c0,1.37,0,2.822-0.08,4.193v0.483
			c-0.081,2.499-0.242,4.999-0.484,7.418c0,0.323-0.081,0.725-0.081,1.048c-0.161,1.129-0.242,2.257-0.403,3.387
			c-0.161,1.128-0.323,2.257-0.565,3.386c-0.242,1.612-0.564,3.306-0.967,4.918c-3.548,4.354-7.821,8.546-12.982,12.337
			c-11.53,8.546-27.656,15.643-50.071,20.479c-2.499,0.565-5.08,1.049-7.741,1.533c-20.077,3.71-44.588,5.725-74.744,5.725h-4.192
			c-61.118-0.404-99.014-9.434-122.155-23.384c-7.902-4.756-14.11-10.079-18.948-15.884c-1.048-4.031-1.693-8.225-2.177-12.497
			c-0.403-4.516-0.645-9.111-0.645-13.708c0-23.14,10.321-44.185,27.011-59.504c4.596-4.193,9.675-7.982,15.239-11.289
			c14.352-8.465,31.365-13.465,49.588-13.465h112.56c5.241,0,10.32,0.404,15.239,1.21c1.855,0.241,3.628,0.564,5.403,0.967
			c2.741,0.564,5.402,1.289,8.063,2.096c2.338,0.725,4.676,1.531,7.015,2.419C380.896,333.727,404.117,363.722,404.117,398.473z"/>
		<path style="fill:#A4A8AF;" d="M512,113.769l-0.403,72.244v0.323l-0.403,70.792c0,45.798-21.77,87.807-57.973,120.623
			c-0.968,0.806-1.935,1.693-2.903,2.499c-13.788,12.095-29.511,22.738-46.846,31.93c-4.274,2.257-8.627,4.434-13.143,6.45
			c-0.967,0.484-1.935,0.888-2.902,1.371c-38.38,17.174-83.372,27.091-131.427,27.091c-54.909,0-105.786-12.901-147.472-34.912
			c-3.789-2.016-7.499-4.112-11.127-6.209c-2.338-1.371-4.596-2.822-6.853-4.274c-2.419-1.533-4.757-3.064-7.095-4.676
			c-0.081-0.081-0.161-0.081-0.242-0.161c-23.544-16.126-42.975-35.397-56.925-57.006c-7.66-11.691-13.707-23.947-17.98-36.847
			c-0.887-2.66-1.693-5.241-2.419-7.902c-3.306-12.256-5.08-24.995-5.08-37.977l-0.403-71.196L0,113.769
			C0,62.488,76.438,19.11,181.417,4.919C204.962,1.693,230.037,0,256,0c21.851,0,43.057,1.21,63.295,3.468
			c3.145,0.403,6.289,0.725,9.434,1.209c0.081,0,0.242,0,0.322,0.081c53.055,6.934,98.933,21.367,131.427,40.557
			c23.06,13.626,39.428,29.51,46.846,46.846C510.388,99.175,512,106.351,512,113.769z"/>
		<path style="fill:#A4A8AF;" d="M512,113.769l-0.403,72.244v0.323l-0.403,70.792c0,45.798-21.77,87.807-57.973,120.623
			c-0.968,0.806-1.935,1.693-2.903,2.499c-13.788,12.095-29.511,22.738-46.846,31.93c-4.274,2.257-8.627,4.434-13.143,6.45
			c-0.967,0.484-1.935,0.888-2.902,1.371c-38.38,17.174-83.372,27.091-131.427,27.091c-54.909,0-105.786-12.901-147.472-34.912
			c-3.789-2.016-7.499-4.112-11.127-6.209c-2.338-1.371-4.596-2.822-6.853-4.274c-2.419-1.533-4.757-3.064-7.095-4.676
			c-0.081-0.081-0.161-0.081-0.242-0.161c-23.544-16.126-42.975-35.397-56.925-57.006c-7.66-11.691-13.707-23.947-17.98-36.847
			c-0.887-2.66-1.693-5.241-2.419-7.902c-3.306-12.256-5.08-24.995-5.08-37.977l-0.403-71.196L0,113.769
			C0,62.488,76.438,19.11,181.417,4.919C204.962,1.693,230.037,0,256,0c21.851,0,43.057,1.21,63.295,3.468
			c3.145,0.403,6.289,0.725,9.434,1.209c0.081,0,0.242,0,0.322,0.081c53.055,6.934,98.933,21.367,131.427,40.557
			c23.06,13.626,39.428,29.51,46.846,46.846C510.388,99.175,512,106.351,512,113.769z"/>
		<g>
			<ellipse style="fill:#6B7779;" cx="256.005" cy="121.789" rx="221.874" ry="102.398"/>
			<path style="opacity:0.2;fill:#040000;" d="M404.131,198.035c-39.272,16.266-91.212,26.159-148.13,26.159
				c-56.919,0-108.845-9.892-148.117-26.159c39.272-16.28,91.198-26.173,148.117-26.173
				C312.919,171.862,364.859,181.755,404.131,198.035z"/>
		</g>
		<path style="fill:#E8DFBA;" d="M411.256,313.304c0.441-0.258,1.804-0.928,4.506-2.253
			C413.931,311.896,411.855,312.969,411.256,313.304z"/>
		<path style="fill:#E8DFBA;" d="M415.862,310.95c-0.024,0.038-0.075,0.038-0.101,0.101c0.05-0.063,0.101-0.101,0.202-0.101
			C415.919,310.95,415.919,310.95,415.862,310.95z"/>
		<path style="fill:#E8DFBA;" d="M415.862,234.683C427.595,237.409,416.436,226.212,415.862,234.683L415.862,234.683z"/>
		<path style="fill:#E8DFBA;" d="M393.293,240.362c-6.236-4.633-15.595,0.315-8.47,5.631
			C384.848,241.347,392.643,244.414,393.293,240.362z"/>
		<path style="fill:#E8DFBA;" d="M345.25,313.803c-3.01,5.452-9.561,7.372-14.112,11.31c6.955,0.333,13.613,0.416,16.952-2.853
			C347.649,318.94,348.558,314.232,345.25,313.803z"/>
		<path style="fill:#E8DFBA;" d="M370.66,248.82C372.522,250.682,369.499,247.633,370.66,248.82L370.66,248.82z"/>
		<path style="fill:#E8DFBA;" d="M302.875,245.993c-1.805,5.717-13.191,1.861-14.106,8.488
			C294.847,254.639,311.466,251.18,302.875,245.993z"/>
		<path style="fill:#E8DFBA;" d="M102.336,319.432c4.202,4.469,11.53,2.082,14.106-2.827
			C112.34,318.169,101.844,313.322,102.336,319.432z"/>
		<path style="fill:#E8DFBA;" d="M99.515,336.384c3.737,3.661,10.496,3.724,11.284-2.827
			C106.59,334.037,100.38,332.548,99.515,336.384z"/>
		<path style="fill:#E8DFBA;" d="M133.395,248.82C145.134,251.515,133.969,240.362,133.395,248.82L133.395,248.82z"/>
		<path style="fill:#E8DFBA;" d="M150.353,327.902C149.16,326.734,152.184,329.757,150.353,327.902L150.353,327.902z"/>
		<path style="fill:#E8DFBA;" d="M453.188,377.72c-0.932,0.857-1.894,1.714-2.857,2.541C450.962,379.359,452,378.457,453.188,377.72
			z"/>
		<path style="opacity:0.2;fill:#E8DFBA;" d="M403.056,415.552c-0.165,1.143-0.346,2.286-0.541,3.413
			c-1.413,1.443-3.459,2.255-6.406,2.18C394.921,415.777,399.027,415.672,403.056,415.552z"/>
		<path style="fill:#E8DFBA;" d="M401.75,319.432C416.727,322.499,405.102,310.848,401.75,319.432L401.75,319.432z"/>
		<path style="fill:#E8DFBA;" d="M438.483,282.725c-7.195,0.353-10.962,4.09-11.304,11.297
			C436.009,295.323,439.77,291.566,438.483,282.725z"/>
		<path style="fill:#E8DFBA;" d="M421.53,302.504C425.645,311.859,428.561,291.466,421.53,302.504L421.53,302.504z"/>
		<path style="fill:#E8DFBA;" d="M418.709,390.044C430.423,392.777,419.284,381.581,418.709,390.044L418.709,390.044z"/>
		<path style="fill:#E8DFBA;" d="M166.662,375.516C178.389,378.23,167.255,367.091,166.662,375.516L166.662,375.516z"/>
		<path style="opacity:0.2;fill:#E8DFBA;" d="M155.378,451.809C167.11,454.472,155.945,443.339,155.378,451.809L155.378,451.809z"/>
		<path style="fill:#E8DFBA;" d="M39.569,290.779c-6.437-0.783-10.616,0.694-11.316,5.661C34.71,297.21,38.9,295.745,39.569,290.779
			z"/>
		<path style="fill:#E8DFBA;" d="M113.003,386.814c-2.128,9.631,10.787,11.013,11.31,2.846
			C120.501,388.745,118.923,385.628,113.003,386.814z"/>
		<path style="fill:#E8DFBA;" d="M98.897,265.344c0.416-0.291,0.744-0.492,1.041-0.688c-0.523,0.353-1.218,0.788-1.956,1.281
			C98.284,265.742,98.575,265.584,98.897,265.344z"/>
		<path style="fill:#E8DFBA;" d="M463.404,256.582c-4.847-0.182-7.227,2.172-8.47,5.63
			C459.389,261.935,464.742,262.591,463.404,256.582z"/>
		<path style="fill:#E8DFBA;" d="M8.95,302.846c-0.242,0-0.484,0.081-0.645,0.161c-0.887-2.66-1.693-5.241-2.419-7.902
			C8.305,296.315,9.273,298.895,8.95,302.846z"/>
		<path style="fill:#E8DFBA;" d="M437.988,344.122C442.121,353.495,445.012,333.128,437.988,344.122L437.988,344.122z"/>
		<path style="opacity:0.2;fill:#E8DFBA;" d="M395.824,439.76c-0.812,1.579-1.699,3.158-2.646,4.691
			c-1.143-0.767-2.286-2.12-3.218-4.285C392.456,439.7,394.38,439.61,395.824,439.76z"/>
		<path style="fill:#E8DFBA;" d="M62.158,237.119c5.25-0.392,9.436-1.856,11.297-5.674
			C68.476,232.083,59.318,228.598,62.158,237.119z"/>
		<path style="opacity:0.2;fill:#E8DFBA;" d="M266.02,458.171C270.16,467.525,273.056,447.151,266.02,458.171L266.02,458.171z"/>
		<path style="fill:#E8DFBA;" d="M186.591,355.432C185.398,354.246,188.439,357.294,186.591,355.432L186.591,355.432z"/>
		<path style="fill:#E8DFBA;" d="M296.842,292.893c-16.713,8.048-31.936,1.383-33.904,25.411
			C268.921,304.501,291.123,306.931,296.842,292.893z"/>
		<path style="fill:#E8DFBA;" d="M177.978,330.301c-3.048,7.334-23.441-2.689-19.78,11.31
			C171.395,346.792,185.924,328.003,177.978,330.301z"/>
		<path style="fill:#E8DFBA;" d="M262.728,400.925c-1.912,0-3.78,0-5.667,0c0,1.906,0,3.781,0,5.643c1.887,0,3.755,0,5.667,0
			C262.728,404.706,262.728,402.832,262.728,400.925z"/>
		<path style="fill:#E8DFBA;" d="M254.239,256.861C253.046,255.674,256.089,258.717,254.239,256.861L254.239,256.861z"/>
		<path style="fill:#E8DFBA;" d="M265.53,378.318c-4.506,7.877,12.225,7.814,11.298,2.853
			C273.022,380.282,271.438,377.132,265.53,378.318z"/>
		<path style="fill:#E8DFBA;" d="M231.663,409.415c1.71,0.138,3.339,0.416,2.802,2.809c1.894,0,3.781,0,5.662,0
			C244.514,405.281,230.527,403.918,231.663,409.415z"/>
		<path style="fill:#E8DFBA;" d="M22.759,273.51c-5.429,1.187-12.188,1.029-11.323,8.482
			C16.864,280.805,23.598,280.945,22.759,273.51z"/>
		<path style="fill:#E8DFBA;" d="M228.823,417.879C232.95,427.257,235.854,406.865,228.823,417.879L228.823,417.879z"/>
		<path style="fill:#E8DFBA;" d="M237.281,276.641c-7.082-0.455-8.843,4.33-11.286,8.501c3.787,0,7.531,0,11.286,0
			C237.281,282.296,237.281,279.469,237.281,276.641z"/>
		<path style="fill:#E8DFBA;" d="M28.628,194.833c2.134-9.631-10.767-11.013-11.31-2.827
			C21.149,192.915,22.74,196.019,28.628,194.833z"/>
		<path style="fill:#E8DFBA;" d="M511.822,186.046C493.715,182.765,505.612,194.668,511.822,186.046L511.822,186.046z"/>
		<path style="fill:#E8DFBA;" d="M455.173,197.642c-0.902,6.608-12.32,2.745-14.1,8.488c5.618,0,11.278,0,16.928,0
			C457.553,202.785,458.493,198.115,455.173,197.642z"/>
		<path style="fill:#E8DFBA;" d="M472.127,203.303C483.86,206.029,472.701,194.833,472.127,203.303L472.127,203.303z"/>
		<path style="fill:#E8DFBA;" d="M206.222,381.171C217.949,383.859,206.785,372.726,206.222,381.171L206.222,381.171z"/>
		<path style="fill:#E8DFBA;" d="M186.442,242.761c-3.591-0.164-3.888-3.622-8.47-2.827
			C173.592,246.89,187.578,248.24,186.442,242.761z"/>
		<path style="fill:#E8DFBA;" d="M197.752,355.761C183.419,348.061,187.25,365.607,197.752,355.761L197.752,355.761z"/>
		<path style="fill:#E8DFBA;" d="M255.338,488.629c-0.992,0-1.954,0-2.916-0.015C253.249,487.847,254.421,488.057,255.338,488.629z"
			/>
		<path style="fill:#E8DFBA;" d="M67.949,276.356C61.151,285.81,77.403,269.514,67.949,276.356L67.949,276.356z"/>
		<path style="fill:#E8DFBA;" d="M225.892,334.093c0.12-0.714,0.271-1.382,0.372-1.9c-0.026,0.203-0.076,0.392-0.127,0.632
			C226.037,333.279,225.955,333.695,225.892,334.093z"/>
		<path style="fill:#E8DFBA;" d="M226.138,293.29C241.115,296.358,229.452,284.68,226.138,293.29L226.138,293.29z"/>
		<path style="fill:#E8DFBA;" d="M234.608,355.432c-2.827,0.025-3.376-2.272-5.642-2.828c0.025,2.853-2.303,3.365-2.828,5.643
			c2.853,0,3.358,2.31,5.643,2.84C231.781,358.248,234.084,357.705,234.608,355.432z"/>
		<path style="fill:#E8DFBA;" d="M418.065,347.267C411.261,356.72,427.551,340.425,418.065,347.267L418.065,347.267z"/>
		<path style="opacity:0.2;fill:#E8DFBA;" d="M212.025,479.73C223.759,482.438,212.574,471.259,212.025,479.73L212.025,479.73z"/>
		<path style="fill:#E8DFBA;" d="M313.542,319.029c-1.112,5.434-10.913,2.209-8.438,11.273
			C313.813,333.999,321.108,322.286,313.542,319.029z"/>
		<path style="fill:#E8DFBA;" d="M101.847,400.635c-0.391,2.857-1.94,4.556-4.436,5.323c-2.33-1.383-4.631-2.782-6.901-4.225
			C92.268,399.342,98.162,401.101,101.847,400.635z"/>
		<path style="opacity:0.2;fill:#E8DFBA;" d="M299.454,471.564c-7.238,0.29-13.456,1.578-16.97,5.636
			C288.314,475.502,302.105,481.762,299.454,471.564z"/>
		<path style="fill:#E8DFBA;" d="M293.793,239.908C295.624,241.765,292.632,238.722,293.793,239.908L293.793,239.908z"/>
		<path style="fill:#E8DFBA;" d="M299.454,347.267c-0.069-0.057-0.044-0.039-0.094-0.096c0.177,0.197,0.423,0.411,0.574,0.593
			C299.826,347.663,299.681,347.487,299.454,347.267z"/>
		<path style="fill:#E8DFBA;" d="M226.138,369.538c-3.887,0.158-6.191-1.307-8.495-2.789c0,3.736,0,7.516,0,11.271
			C223.834,378.557,226.662,375.704,226.138,369.538z"/>
		<path style="opacity:0.2;fill:#E8DFBA;" d="M189.4,479.73c5.156,5.175,15.847,1.476,19.786-2.853
			C198.438,479.982,191.557,469.423,189.4,479.73z"/>
		<path style="fill:#E8DFBA;" d="M282.483,369.861C294.234,372.562,283.044,361.391,282.483,369.861L282.483,369.861z"/>
		<path style="fill:#E8DFBA;" d="M169.49,237.119c-4.924,2.575-15.154-0.14-14.107,8.425
			C163.468,246.119,170.771,245.916,169.49,237.119z"/>
		<path style="fill:#E8DFBA;" d="M495.452,118.695c3.446,10.268-18.839,9.095-8.462,16.972
			C487.885,129.708,505.954,126.667,495.452,118.695z"/>
		<path style="fill:#E8DFBA;" d="M469.618,87.486c4.854,0.127,7.227-2.209,8.464-5.673C473.21,81.655,470.837,83.99,469.618,87.486z
			"/>
		<path style="fill:#E8DFBA;" d="M201.924,14.621C213.657,17.329,202.472,6.157,201.924,14.621L201.924,14.621z"/>
		<path style="fill:#E8DFBA;" d="M57.563,66.548c-7.347-5.239-22.942,0.076-28.264,5.642C35.29,72.936,53.934,79.765,57.563,66.548z
			"/>
		<path style="fill:#E8DFBA;" d="M302.491,5.889C300.238,22.979,315.454,7.77,302.491,5.889L302.491,5.889z"/>
		<path style="fill:#E8DFBA;" d="M28.634,146.809C21.799,156.283,38.108,139.986,28.634,146.809L28.634,146.809z"/>
		<path style="fill:#E8DFBA;" d="M329.051,4.757c-1.371,2.983-3.951,4.757-9.434,3.628c0.322-1.855,0.322-3.467,0.081-4.757
			c3.064,0.323,6.047,0.726,9.031,1.048C328.809,4.677,328.97,4.677,329.051,4.757z"/>
		<path style="fill:#E8DFBA;" d="M111.244,33.84c-5.353,1.23-17.054-3.875-14.138,5.642
			C104.111,39.874,110.826,39.994,111.244,33.84z"/>
		<path style="fill:#E8DFBA;" d="M23.135,104.124C38.13,107.204,26.474,95.54,23.135,104.124L23.135,104.124z"/>
		<path style="fill:#E8DFBA;" d="M500.363,95.983C512.109,98.691,500.939,87.494,500.363,95.983L500.363,95.983z"/>
		<path style="fill:#E8DFBA;" d="M153.408,215.326C157.542,224.699,160.445,204.351,153.408,215.326L153.408,215.326z"/>
		<path style="fill:#E8DFBA;" d="M429.524,358.248c-2.903,3.711-2.771,10.42-5.668,14.137c9.631,2.076,4.677-10.426,11.31-11.297
			c2.209-0.632,5.567-0.076,5.668-2.84C437.047,358.248,433.285,358.248,429.524,358.248z"/>
		<path style="opacity:0.2;fill:#E8DFBA;" d="M228.966,474.087c-1.887,0-3.768,0-5.648,0c0,1.861,0,3.736,0,5.642
			c1.881,0,3.761,0,5.648,0C228.966,477.823,228.966,475.949,228.966,474.087z"/>
		<path style="fill:#E8DFBA;" d="M316.53,253.749c-6.811,1.167-6.141-5.182-14.132-2.846
			C302.026,258.968,316.732,261.72,316.53,253.749z"/>
		<path style="fill:#E8DFBA;" d="M333.348,400.932C326.506,410.431,342.828,394.11,333.348,400.932L333.348,400.932z"/>
		<path style="opacity:0.2;fill:#E8DFBA;" d="M336.159,474.389c0.031,3.128-1.548,5.534-3.834,6.992c0,0.015-0.015,0-0.015,0
			c-2.301,0.541-4.677,1.052-7.128,1.534c-0.015,0.015-0.015,0.015-0.03,0c-2.165-0.271-4.286-1.203-5.939-2.872
			C322.702,475.998,328.942,474.675,336.159,474.389z"/>
		<path style="fill:#E8DFBA;" d="M446.359,287.951C450.443,297.311,453.359,276.938,446.359,287.951L446.359,287.951z"/>
		<path style="fill:#E8DFBA;" d="M148.625,280.459c-6.406-0.796-10.59,0.668-11.284,5.636
			C142.333,285.482,151.491,288.941,148.625,280.459z"/>
		<path style="fill:#E8DFBA;" d="M387.033,304.903c8.735-0.668,10.962-7.869,16.926-11.31
			C393.785,292.824,384.432,292.899,387.033,304.903z"/>
		<path style="fill:#E8DFBA;" d="M468.936,310.547c-1.465,4.19-4.184,7.131-5.649,11.291c6.286,1.243,15.317,6.507,16.933-2.789
			C472.817,319.862,478.017,308.073,468.936,310.547z"/>
		<path style="fill:#E8DFBA;" d="M437.865,299.248C449.604,301.963,438.439,290.804,437.865,299.248L437.865,299.248z"/>
		<path style="fill:#E8DFBA;" d="M497.173,239.934c1.881,0,3.786,0,5.667,0c0-1.881,0-3.781,0-5.642c-1.881,0-3.786,0-5.667,0
			C497.173,236.154,497.173,238.054,497.173,239.934z"/>
		<path style="fill:#E8DFBA;" d="M322.031,245.589c0,1.881,0,3.774,0,5.636c1.899,0,3.761,0,5.642,0c0-1.861,0-3.755,0-5.636
			C325.793,245.589,323.93,245.589,322.031,245.589z"/>
		<path style="opacity:0.2;fill:#E8DFBA;" d="M276.859,463.1c2.802,0,5.643,0,8.464,0c-0.416-3.326,0.499-8.035-2.82-8.488
			C281.814,458.651,277.851,459.382,276.859,463.1z"/>
		<path style="fill:#E8DFBA;" d="M322.031,333.154c11.019-0.302,10.345-12.288,11.316-22.607
			C326.94,315.027,316.363,325.397,322.031,333.154z"/>
		<path style="fill:#E8DFBA;" d="M350.3,256.88C358.883,264.599,342.607,248.296,350.3,256.88L350.3,256.88z"/>
		<path style="fill:#E8DFBA;" d="M338.99,415.077C347.826,424.291,343.736,405.085,338.99,415.077L338.99,415.077z"/>
		<path style="fill:#E8DFBA;" d="M319.21,403.76C312.374,413.233,328.696,396.956,319.21,403.76L319.21,403.76z"/>
		<path style="fill:#E8DFBA;" d="M327.673,429.176c-7.422-0.834-7.251,5.896-8.464,11.317
			C326.833,440.297,332.798,434.043,327.673,429.176z"/>
		<path style="opacity:0.2;fill:#E8DFBA;" d="M353.12,465.909c-1.728-0.834-10.886-7.019-11.291,0
			C347.075,463.22,351.259,474.391,353.12,465.909z"/>
		<path style="fill:#E8DFBA;" d="M299.931,415.784c-6.513,0.896-3.142-8.168-8.488-8.464c-0.889,3.836-4.014,5.395-2.796,11.316
			C292.863,418.145,299.035,419.621,299.931,415.784z"/>
		<path style="fill:#E8DFBA;" d="M257.203,293.29C259.058,295.126,256.01,292.104,257.203,293.29L257.203,293.29z"/>
		<path style="fill:#E8DFBA;" d="M466.114,287.932c-0.429,3.339-5.049,6.406,0,8.49
			C466.506,293.076,471.138,290.009,466.114,287.932z"/>
		<path style="fill:#E8DFBA;" d="M409.526,378.281c0.182,0.138,0.423,0.397,0.574,0.536c-0.094-0.094-0.278-0.234-0.492-0.499
			C409.557,378.305,409.583,378.305,409.526,378.281z"/>
		<path style="fill:#E8DFBA;" d="M415.742,373.143c-0.176-0.125-0.392-0.359-0.574-0.536c0.057,0.019,0.057,0.019,0.075,0.083
			C415.49,372.922,415.667,373.042,415.742,373.143z"/>
		<path style="fill:#E8DFBA;" d="M319.359,465.604C318.159,464.418,321.207,467.46,319.359,465.604L319.359,465.604z"/>
		<path style="fill:#E8DFBA;" d="M358.763,417.879C373.74,420.946,362.108,409.321,358.763,417.879L358.763,417.879z"/>
		<path style="fill:#E8DFBA;" d="M342.277,438.15c-0.069-0.094-0.252-0.278-0.467-0.492c-0.05-0.057-0.05-0.057-0.076-0.075
			C341.911,437.759,342.132,437.999,342.277,438.15z"/>
		<path style="fill:#E8DFBA;" d="M17.078,296.098C18.941,297.96,15.917,294.931,17.078,296.098L17.078,296.098z"/>
		<g style="opacity:0.6;">
			<path style="fill:#555659;" d="M289.145,175.482C300.872,178.177,289.713,167.024,289.145,175.482L289.145,175.482z"/>
			<path style="fill:#555659;" d="M472.609,88.202C471.416,87.033,474.457,90.063,472.609,88.202L472.609,88.202z"/>
			<path style="fill:#555659;" d="M212.853,223.486c1.899,0,3.768,0,5.649,0c0-1.881,0-3.755,0-5.629c-1.881,0-3.75,0-5.649,0
				C212.853,219.73,212.853,221.605,212.853,223.486z"/>
			<path style="fill:#555659;" d="M362.578,45.535c-4.43-1.483-15.128-10.899-19.773-2.827c11.404-3.882,9.997,5.081,14.13,8.501
				C356.956,47.473,361.878,48.603,362.578,45.535z"/>
			<path style="fill:#555659;" d="M393.193,174.755C401.852,172.736,367.871,180.593,393.193,174.755L393.193,174.755z"/>
			<path style="fill:#555659;" d="M96.419,166.57C98.281,168.425,95.264,165.384,96.419,166.57L96.419,166.57z"/>
			<path style="fill:#555659;" d="M56.877,73.369C58.734,75.206,55.717,72.164,56.877,73.369L56.877,73.369z"/>
			<path style="fill:#555659;" d="M184.499,221c0.296-5.358,9.329-1.957,8.488-8.482C185.811,209.533,176.843,218.476,184.499,221z"
				/>
			<path style="fill:#555659;" d="M319.591,206.13C321.44,207.967,318.399,204.943,319.591,206.13L319.591,206.13z"/>
			<path style="fill:#555659;" d="M282.995,171.921c0.454,3.326-0.468,8.015,2.82,8.488
				C287.545,177.76,292.399,169.964,282.995,171.921z"/>
			<path style="fill:#555659;" d="M200.407,71.532c0.127-0.87,0.296-2.095,0.574-3.799
				C201.922,61.012,200.906,68.093,200.407,71.532z"/>
			<path style="fill:#555659;" d="M203.77,175.052c-3.736,4.734-7.472,9.455-5.642,19.78
				C205.576,195.489,208.624,177.388,203.77,175.052z"/>
			<path style="fill:#555659;" d="M159.594,116.08C156.595,132.478,171.819,117.23,159.594,116.08L159.594,116.08z"/>
			<path style="fill:#555659;" d="M62.681,78.708C74.414,81.415,63.224,70.244,62.681,78.708L62.681,78.708z"/>
			<path style="fill:#555659;" d="M251.793,146.809c-4.234,0.454-10.445-1.029-11.291,2.808
				C244.737,149.144,250.922,150.628,251.793,146.809z"/>
			<path style="fill:#555659;" d="M268.747,152.47C268.721,167.302,280.631,155.412,268.747,152.47L268.747,152.47z"/>
			<path style="fill:#555659;" d="M407.157,141.154c-4.879-0.14-7.22,2.152-8.49,5.655
				C403.546,146.948,405.92,144.612,407.157,141.154z"/>
			<path style="fill:#555659;" d="M296.983,93.13C308.729,95.838,297.583,84.661,296.983,93.13L296.983,93.13z"/>
			<path style="fill:#555659;" d="M294.169,132.665C309.152,135.732,297.482,124.107,294.169,132.665L294.169,132.665z"/>
			<path style="fill:#555659;" d="M429.9,61.755C419.65,75.091,446.429,65.498,429.9,61.755L429.9,61.755z"/>
			<path style="fill:#555659;" d="M421.43,219.951C423.292,221.788,420.225,218.74,421.43,219.951L421.43,219.951z"/>
			<path style="fill:#555659;" d="M466.613,149.314C465.402,148.127,468.489,151.182,466.613,149.314L466.613,149.314z"/>
			<path style="fill:#555659;" d="M438.221,124.201c-7.378-0.788-12.15,1.029-11.285,8.464
				C432.358,131.478,439.086,131.68,438.221,124.201z"/>
			<path style="fill:#555659;" d="M441.074,101.594c2.809,0,5.618,0,8.482,0C451.81,87.475,441.238,94.967,441.074,101.594z"/>
			<path style="fill:#555659;" d="M266.068,118.249c-7.726,4.544,4.134,9.467,5.642,2.827
				C268.864,121.076,268.34,118.779,266.068,118.249z"/>
			<path style="fill:#555659;" d="M322.407,53.614c-2.822,0-5.643,0-8.446,0c0,2.809,0,5.636,0,8.464
				C320.102,62.595,322.931,59.743,322.407,53.614z"/>
			<path style="fill:#555659;" d="M441.062,124.207C452.795,126.915,441.61,115.763,441.062,124.207L441.062,124.207z"/>
			<path style="fill:#555659;" d="M193.189,79.125c-4.431,0.278-9.777-0.354-8.49,5.661
				C189.573,84.925,191.952,82.609,193.189,79.125z"/>
			<path style="fill:#555659;" d="M232.021,175.052c-0.398,0.405,0.215,2.279,0,2.835
				C225.703,194.757,246.474,160.618,232.021,175.052z"/>
			<path style="fill:#555659;" d="M305.473,186.375C320.476,189.418,308.818,177.767,305.473,186.375L305.473,186.375z"/>
			<path style="fill:#555659;" d="M285.699,146.816c1.881,0,3.761,0,5.649,0c0-1.881,0-3.763,0-5.643c-1.887,0-3.768,0-5.649,0
				C285.699,143.053,285.699,144.935,285.699,146.816z"/>
			<path style="fill:#555659;" d="M288.514,79.03C300.254,81.719,289.088,70.56,288.514,79.03L288.514,79.03z"/>
			<path style="fill:#555659;" d="M359.14,160.934c14.699,2.43,11.783-12.698,16.952-19.761
				C365.343,142.663,362.63,152.174,359.14,160.934z"/>
			<path style="fill:#555659;" d="M254.751,211.481c4.74-3.773,17.968,1.011,16.959-8.501
				C263.088,202.841,257.332,205.574,254.751,211.481z"/>
			<path style="fill:#555659;" d="M311.238,95.654c6.905-1.603,14.555-2.411,14.156-11.291
				C317.108,84.558,309.452,85.372,311.238,95.654z"/>
			<path style="fill:#555659;" d="M215.087,155.254c4.998-0.632,14.137,2.89,11.284-5.637
				C219.94,148.848,215.75,150.312,215.087,155.254z"/>
		</g>
		<path style="fill:#E8DFBA;" d="M175.123,379.207c0.101-0.593,0.169-1.141,0.252-1.679c-0.032,0.159-0.057,0.335-0.083,0.492
			C175.224,378.456,175.18,378.81,175.123,379.207z"/>
		<path style="fill:#E8DFBA;" d="M440.834,245.259C433.999,254.739,450.314,238.443,440.834,245.259L440.834,245.259z"/>
		<path style="fill:#E8DFBA;" d="M339.125,346.969c7.032,0.416,11.741-1.465,14.138-5.636
			C346.233,340.897,339.542,340.777,339.125,346.969z"/>
		<path style="fill:#E8DFBA;" d="M364.547,403.475c0.203,4.91-0.637,8.766-2.82,11.278
			C369.572,419.267,369.553,402.566,364.547,403.475z"/>
		<path style="fill:#E8DFBA;" d="M133.259,396.004C144.985,398.736,133.827,387.559,133.259,396.004L133.259,396.004z"/>
		<path style="fill:#E8DFBA;" d="M118.676,361.391C110.945,369.955,127.234,353.679,118.676,361.391L118.676,361.391z"/>
		<path style="fill:#E8DFBA;" d="M251.914,350.851C256.029,360.204,258.944,339.793,251.914,350.851L251.914,350.851z"/>
	</g>
	<path style="opacity:0.07;fill:#040000;" d="M511.597,186.013h0.242c-0.081,0.161-0.161,0.161-0.242,0.242v0.081l-0.403,70.792
		c0,45.798-21.77,87.807-57.973,120.623c-0.968,0.806-1.935,1.693-2.903,2.499c-13.788,12.095-29.511,22.738-46.846,31.93
		c-0.161,1.129-0.242,2.257-0.403,3.387c-0.161,1.128-0.323,2.257-0.565,3.386c-1.21,7.257-3.306,14.191-6.692,20.803
		c-0.806,1.612-1.693,3.144-2.661,4.676c-3.628,5.967-8.466,11.45-14.675,16.448c-10.724,8.628-25.56,15.643-46.12,20.48
		c-0.081,0-0.081,0-0.081,0c-2.258,0.565-4.677,1.048-7.095,1.532c-18.464,3.71-41.121,5.725-68.858,5.725H256V0
		c21.851,0,43.057,1.21,63.295,3.468c3.145,0.403,6.289,0.725,9.434,1.209c0.081,0,0.242,0,0.322,0.081
		c53.055,6.934,98.933,21.367,131.427,40.557c23.06,13.626,39.428,29.51,46.846,46.846c3.064,7.015,4.676,14.19,4.676,21.609
		L511.597,186.013z"/>
</g>
</svg>